<svg width="20" height="20" viewBox="0 0 20 20" fill="none" xmlns="http://www.w3.org/2000/svg">
<path fill-rule="evenodd" clip-rule="evenodd" d="M3 4C3 2.89543 3.97005 2 5.16667 2H10.1346C10.7092 2 11.2603 2.21071 11.6667 2.58579L15.3654 6C15.7717 6.37507 16 6.88378 16 7.41421V16C16 17.1046 15.03 18 13.8333 18H5.16667C3.97005 18 3 17.1046 3 16V4ZM5.16667 10C5.16667 9.44772 5.65169 9 6.25 9H12.75C13.3483 9 13.8333 9.44772 13.8333 10C13.8333 10.5523 13.3483 11 12.75 11H6.25C5.65169 11 5.16667 10.5523 5.16667 10ZM6.25 13C5.65169 13 5.16667 13.4477 5.16667 14C5.16667 14.5523 5.65169 15 6.25 15H12.75C13.3483 15 13.8333 14.5523 13.8333 14C13.8333 13.4477 13.3483 13 12.75 13H6.25Z" fill="#081C2C"/>
</svg>
