<svg width="20" height="20" viewBox="0 0 20 20" fill="none" xmlns="http://www.w3.org/2000/svg">
<path fill-rule="evenodd" clip-rule="evenodd" d="M2.5131 6.24025V4.36851C2.5131 3.3454 3.34547 2.51304 4.36857 2.51304H6.24031C6.47402 2.51304 6.66349 2.32357 6.66349 2.08986C6.66349 1.85616 6.47402 1.66669 6.24031 1.66669H4.36857C2.87879 1.66669 1.66675 2.87871 1.66675 4.36851V6.24025C1.66675 6.47396 1.85622 6.66343 2.08993 6.66343C2.32363 6.66343 2.5131 6.47396 2.5131 6.24025ZM6.24031 17.487C6.47402 17.487 6.66349 17.6765 6.66349 17.9102C6.66349 18.1439 6.47402 18.3334 6.24031 18.3334H4.36857C2.87879 18.3334 1.66675 17.1213 1.66675 15.6315V13.7598C1.66675 13.5261 1.85622 13.3366 2.08993 13.3366C2.32363 13.3366 2.5131 13.5261 2.5131 13.7598V15.6315C2.5131 16.6546 3.34547 17.487 4.36857 17.487H6.24031ZM18.3334 13.7598V15.6315C18.3334 17.1213 17.1214 18.3334 15.6316 18.3334H13.7598C13.5261 18.3334 13.3367 18.1439 13.3367 17.9102C13.3367 17.6765 13.5261 17.487 13.7598 17.487H15.6316C16.6547 17.487 17.4871 16.6546 17.4871 15.6315V13.7598C17.4871 13.5261 17.6765 13.3366 17.9102 13.3366C18.1439 13.3366 18.3334 13.5261 18.3334 13.7598ZM18.3334 4.36851V6.24025C18.3334 6.47396 18.1439 6.66343 17.9102 6.66343C17.6765 6.66343 17.4871 6.47396 17.4871 6.24025V4.36851C17.4871 3.3454 16.6547 2.51304 15.6316 2.51304H13.7598C13.5261 2.51304 13.3367 2.32357 13.3367 2.08986C13.3367 1.85616 13.5261 1.66669 13.7598 1.66669H15.6316C17.1214 1.66669 18.3334 2.87871 18.3334 4.36851ZM12.9206 13.9849C13.0988 13.8203 13.1099 13.5422 12.9452 13.364C12.7805 13.1857 12.5025 13.1746 12.3242 13.3393C11.6898 13.9253 10.8644 14.248 10.0002 14.248C9.13588 14.248 8.31052 13.9253 7.67613 13.3393C7.49781 13.1746 7.21984 13.1857 7.05514 13.364C6.89046 13.5422 6.90148 13.8203 7.07976 13.9849C7.87705 14.7214 8.91417 15.1269 10.0002 15.1269C11.0861 15.1269 12.1233 14.7214 12.9206 13.9849ZM10.879 7.94924V11.0742C10.879 11.6935 10.3752 12.1973 9.75594 12.1973H9.39787C9.15516 12.1973 8.95841 12.0005 8.95841 11.7578C8.95841 11.5151 9.15516 11.3184 9.39787 11.3184H9.75594C9.89056 11.3184 10.0001 11.2089 10.0001 11.0742V7.94924C10.0001 7.70653 10.1968 7.50979 10.4395 7.50979C10.6822 7.50979 10.879 7.70653 10.879 7.94924ZM13.9063 9.17808V7.92482C13.9063 7.69561 13.7205 7.50979 13.4913 7.50979C13.2621 7.50979 13.0763 7.69561 13.0763 7.92482V9.17808C13.0763 9.4073 13.2621 9.59312 13.4913 9.59312C13.7205 9.59312 13.9063 9.4073 13.9063 9.17808ZM6.19149 9.17808C6.19149 9.4073 6.37731 9.59312 6.60653 9.59312C6.83574 9.59312 7.02157 9.4073 7.02157 9.17808V7.92482C7.02157 7.69561 6.83574 7.50979 6.60653 7.50979C6.37731 7.50979 6.19149 7.69561 6.19149 7.92482V9.17808Z" fill="black"/>
</svg>
