<svg width="20" height="20" viewBox="0 0 20 20" fill="none" xmlns="http://www.w3.org/2000/svg">
<path fill-rule="evenodd" clip-rule="evenodd" d="M4 4C2.89543 4 2 4.97005 2 6.16667V14.8333C2 16.03 2.89543 17 4 17H16C17.1046 17 18 16.03 18 14.8333V8.33333C18 7.13672 17.1046 6.16667 16 6.16667H11L9 4H4ZM11 9.41667C11 8.81836 10.5523 8.33333 10 8.33333C9.44772 8.33333 9 8.81836 9 9.41667V10.5H8C7.44772 10.5 7 10.985 7 11.5833C7 12.1816 7.44772 12.6667 8 12.6667H9V13.75C9 14.3483 9.44772 14.8333 10 14.8333C10.5523 14.8333 11 14.3483 11 13.75V12.6667H12C12.5523 12.6667 13 12.1816 13 11.5833C13 10.985 12.5523 10.5 12 10.5H11V9.41667Z" fill="#081C2C"/>
</svg>
