<svg width="20" height="20" viewBox="0 0 20 20" fill="none" xmlns="http://www.w3.org/2000/svg">
<path d="M7.5 7.50002L13.3333 13.3334H10.8333V16.6667L10 19.1667L9.16667 16.6667V13.3334H5.83333C5.61232 13.3334 5.40036 13.2456 5.24408 13.0893C5.0878 12.933 5 12.721 5 12.5V11.1784C5.00005 10.9574 5.08788 10.7454 5.24417 10.5892L7.5 8.33335V7.50002ZM13.3333 1.66669C13.5543 1.66669 13.7663 1.75448 13.9226 1.91076C14.0789 2.06704 14.1667 2.27901 14.1667 2.50002V2.81835C14.1666 2.97307 14.1234 3.12471 14.042 3.25629C13.9606 3.38787 13.8442 3.49419 13.7058 3.56335L12.5 4.16669V8.33335L14.7558 10.5892C14.9121 10.7454 15 10.9574 15 11.1784V12.5C15.0001 12.6095 14.9786 12.718 14.9367 12.8192L10.225 8.10835L7.5 5.38335V4.16669L6.29417 3.56335C6.15577 3.49419 6.03935 3.38787 5.95796 3.25629C5.87657 3.12471 5.83342 2.97307 5.83333 2.81835V2.50002C5.83333 2.27901 5.92113 2.06704 6.07741 1.91076C6.23369 1.75448 6.44565 1.66669 6.66667 1.66669H13.3333Z" fill="black"/>
<path d="M1.36255 2.42086C1.22261 2.56141 1.14404 2.75168 1.14404 2.95002C1.14404 3.14837 1.22261 3.33863 1.36255 3.47919L16.5209 18.6375C16.6612 18.7779 16.8516 18.8567 17.0501 18.8567C17.2485 18.8567 17.4389 18.7779 17.5792 18.6375C17.7196 18.4972 17.7984 18.3068 17.7984 18.1084C17.7984 17.9099 17.7196 17.7195 17.5792 17.5792L9.16672 9.16669L2.42089 2.42086C2.3514 2.35136 2.2689 2.29624 2.1781 2.25863C2.08731 2.22102 1.98999 2.20166 1.89172 2.20166C1.79344 2.20166 1.69613 2.22102 1.60533 2.25863C1.51454 2.29624 1.43204 2.35136 1.36255 2.42086Z" fill="black"/>
</svg>
