<svg width="20" height="20" viewBox="0 0 20 20" fill="none" xmlns="http://www.w3.org/2000/svg">
<path fill-rule="evenodd" clip-rule="evenodd" d="M15.8334 10.725C15.8334 10.3334 15.5501 10.0167 15.1667 9.90835C14.6397 9.76295 14.1749 9.4486 13.8437 9.01355C13.5125 8.5785 13.3332 8.04678 13.3334 7.50002V3.33335H14.1667C14.6251 3.33335 15.0001 2.95835 15.0001 2.50002C15.0001 2.04169 14.6251 1.66669 14.1667 1.66669H5.83341C5.37508 1.66669 5.00008 2.04169 5.00008 2.50002C5.00008 2.95835 5.37508 3.33335 5.83341 3.33335H6.66675V7.50002C6.66675 8.65002 5.89175 9.61669 4.83341 9.90835C4.45008 10.0167 4.16675 10.3334 4.16675 10.725V10.8334C4.16675 11.2917 4.54175 11.6667 5.00008 11.6667H9.15008L9.16675 17.5C9.16675 17.9584 9.54175 18.3334 10.0001 18.3334C10.4584 18.3334 10.8334 17.9584 10.8334 17.5L10.8167 11.6667H15.0001C15.4584 11.6667 15.8334 11.2917 15.8334 10.8334V10.725Z" fill="black"/>
</svg>
