<svg width="20" height="20" viewBox="0 0 20 20" fill="none" xmlns="http://www.w3.org/2000/svg">
<path d="M3.025 3.025C2.94775 3.10209 2.88646 3.19367 2.84464 3.29448C2.80282 3.39529 2.7813 3.50336 2.7813 3.6125C2.7813 3.72164 2.80282 3.82971 2.84464 3.93052C2.88646 4.03133 2.94775 4.12291 3.025 4.2L6.075 7.25L5.83333 7.5H3.33333C2.875 7.5 2.5 7.875 2.5 8.33333V11.6667C2.5 12.125 2.875 12.5 3.33333 12.5H5.83333L8.575 15.2417C9.1 15.7667 10 15.3917 10 14.65V11.175L13.4833 14.6583C13.075 14.9667 12.6333 15.225 12.15 15.4167C11.85 15.5417 11.6667 15.8583 11.6667 16.1833C11.6667 16.7833 12.275 17.1667 12.825 16.9417C13.4917 16.6667 14.1167 16.3 14.675 15.85L15.7917 16.9667C15.8688 17.0438 15.9604 17.105 16.0612 17.1468C16.162 17.1885 16.2701 17.21 16.3792 17.21C16.4883 17.21 16.5963 17.1885 16.6971 17.1468C16.7979 17.105 16.8895 17.0438 16.9667 16.9667C17.0438 16.8895 17.105 16.7979 17.1468 16.6971C17.1885 16.5963 17.21 16.4883 17.21 16.3792C17.21 16.2701 17.1885 16.162 17.1468 16.0612C17.105 15.9604 17.0438 15.8688 16.9667 15.7917L4.20833 3.025C3.88333 2.7 3.35833 2.7 3.025 3.025ZM15.8333 10C15.8333 10.6833 15.7083 11.3417 15.4917 11.95L16.7667 13.225C17.2333 12.25 17.5 11.1583 17.5 10C17.5 6.80833 15.5 4.075 12.6833 3C12.1917 2.80833 11.6667 3.19167 11.6667 3.71667V3.875C11.6667 4.19167 11.875 4.46667 12.175 4.58333C14.3167 5.45 15.8333 7.55 15.8333 10ZM8.575 4.75833L8.43333 4.9L10 6.46667V5.34167C10 4.6 9.1 4.23333 8.575 4.75833ZM13.75 10C13.7498 9.30177 13.5547 8.61745 13.1866 8.02412C12.8186 7.43078 12.2921 6.95199 11.6667 6.64167V8.13333L13.7333 10.2C13.7417 10.1333 13.75 10.0667 13.75 10Z" fill="#081C2C"/>
</svg>
