<svg width="20" height="20" viewBox="0 0 20 20" fill="none" xmlns="http://www.w3.org/2000/svg">
<path d="M2.5 8.33334V11.6667C2.5 12.125 2.875 12.5 3.33333 12.5H5.83333L8.575 15.2417C9.1 15.7667 10 15.3917 10 14.65V5.34168C10 4.60001 9.1 4.22501 8.575 4.75001L5.83333 7.50001H3.33333C2.875 7.50001 2.5 7.87501 2.5 8.33334ZM13.75 10C13.7498 9.30178 13.5547 8.61746 13.1866 8.02413C12.8186 7.43079 12.2921 6.952 11.6667 6.64168V13.35C12.9 12.7417 13.75 11.475 13.75 10ZM11.6667 3.70834V3.87501C11.6667 4.19168 11.875 4.46668 12.1667 4.58334C14.3167 5.44168 15.8333 7.55001 15.8333 10C15.8333 12.45 14.3167 14.5583 12.1667 15.4167C11.8667 15.5333 11.6667 15.8083 11.6667 16.125V16.2917C11.6667 16.8167 12.1917 17.1833 12.675 17C15.5 15.925 17.5 13.2 17.5 10C17.5 6.80001 15.5 4.07501 12.675 3.00001C12.1917 2.80834 11.6667 3.18334 11.6667 3.70834Z" fill="#081C2C"/>
</svg>
